<mxfile host="app.diagrams.net" modified="2023-10-17T08:19:43.400Z" agent="Mozilla/5.0 (Windows NT 10.0; Win64; x64) AppleWebKit/537.36 (KHTML, like Gecko) Chrome/101.0.4951.54 Safari/537.36" etag="fc8QvdIx2nwJTX5HzbXl" version="22.0.4" type="github">
  <diagram name="Page-1" id="XA4eeoESqtf3kiA--uxz">
    <mxGraphModel dx="934" dy="518" grid="1" gridSize="10" guides="1" tooltips="1" connect="1" arrows="1" fold="1" page="1" pageScale="1" pageWidth="850" pageHeight="1100" math="0" shadow="0">
      <root>
        <mxCell id="0" />
        <mxCell id="1" parent="0" />
        <mxCell id="9ZFCEv5_zAoywzQ1t4b1-1" value="&lt;font style=&quot;font-size: 17px;&quot;&gt;ATM/POS&lt;br&gt;&lt;/font&gt;&lt;font style=&quot;font-size: 16px;&quot;&gt;Switch&lt;br&gt;&lt;/font&gt;&lt;br&gt;&lt;br&gt;&lt;font style=&quot;font-size: 21px;&quot;&gt;CBO&lt;/font&gt;" style="rounded=1;whiteSpace=wrap;html=1;" parent="1" vertex="1">
          <mxGeometry x="350" y="220" width="120" height="170" as="geometry" />
        </mxCell>
        <mxCell id="9ZFCEv5_zAoywzQ1t4b1-2" value="SDMS" style="ellipse;whiteSpace=wrap;html=1;" parent="1" vertex="1">
          <mxGeometry x="345" y="414" width="130" height="80" as="geometry" />
        </mxCell>
        <mxCell id="9ZFCEv5_zAoywzQ1t4b1-5" style="edgeStyle=orthogonalEdgeStyle;rounded=0;orthogonalLoop=1;jettySize=auto;html=1;" parent="1" source="9ZFCEv5_zAoywzQ1t4b1-3" target="9ZFCEv5_zAoywzQ1t4b1-1" edge="1">
          <mxGeometry relative="1" as="geometry" />
        </mxCell>
        <mxCell id="9ZFCEv5_zAoywzQ1t4b1-3" value="Bank A" style="rounded=1;whiteSpace=wrap;html=1;" parent="1" vertex="1">
          <mxGeometry x="40" y="300" width="120" height="60" as="geometry" />
        </mxCell>
        <mxCell id="9ZFCEv5_zAoywzQ1t4b1-6" style="edgeStyle=orthogonalEdgeStyle;rounded=0;orthogonalLoop=1;jettySize=auto;html=1;entryX=1;entryY=0.5;entryDx=0;entryDy=0;" parent="1" source="9ZFCEv5_zAoywzQ1t4b1-4" target="9ZFCEv5_zAoywzQ1t4b1-1" edge="1">
          <mxGeometry relative="1" as="geometry" />
        </mxCell>
        <mxCell id="9ZFCEv5_zAoywzQ1t4b1-4" value="Bank B" style="rounded=1;whiteSpace=wrap;html=1;" parent="1" vertex="1">
          <mxGeometry x="640" y="300" width="120" height="60" as="geometry" />
        </mxCell>
        <mxCell id="9ZFCEv5_zAoywzQ1t4b1-7" value="Bank Net" style="text;html=1;align=center;verticalAlign=middle;resizable=0;points=[];autosize=1;strokeColor=none;fillColor=none;" parent="1" vertex="1">
          <mxGeometry x="490" y="280" width="70" height="30" as="geometry" />
        </mxCell>
        <mxCell id="9ZFCEv5_zAoywzQ1t4b1-8" value="Bank Net" style="text;html=1;align=center;verticalAlign=middle;resizable=0;points=[];autosize=1;strokeColor=none;fillColor=none;" parent="1" vertex="1">
          <mxGeometry x="250" y="280" width="70" height="30" as="geometry" />
        </mxCell>
        <mxCell id="9ZFCEv5_zAoywzQ1t4b1-12" style="edgeStyle=orthogonalEdgeStyle;rounded=0;orthogonalLoop=1;jettySize=auto;html=1;entryX=0.5;entryY=1;entryDx=0;entryDy=0;" parent="1" source="9ZFCEv5_zAoywzQ1t4b1-10" target="9ZFCEv5_zAoywzQ1t4b1-3" edge="1">
          <mxGeometry relative="1" as="geometry" />
        </mxCell>
        <mxCell id="9ZFCEv5_zAoywzQ1t4b1-10" value="ATM" style="rounded=0;whiteSpace=wrap;html=1;" parent="1" vertex="1">
          <mxGeometry x="55" y="500" width="90" height="80" as="geometry" />
        </mxCell>
        <mxCell id="9ZFCEv5_zAoywzQ1t4b1-13" value="Issuer" style="text;html=1;align=center;verticalAlign=middle;resizable=0;points=[];autosize=1;strokeColor=none;fillColor=none;" parent="1" vertex="1">
          <mxGeometry x="100" y="418" width="60" height="30" as="geometry" />
        </mxCell>
        <mxCell id="9ZFCEv5_zAoywzQ1t4b1-14" value="Core Bank" style="text;html=1;align=center;verticalAlign=middle;resizable=0;points=[];autosize=1;strokeColor=none;fillColor=none;" parent="1" vertex="1">
          <mxGeometry x="60" y="268" width="80" height="30" as="geometry" />
        </mxCell>
        <mxCell id="9ZFCEv5_zAoywzQ1t4b1-15" value="Core Bank" style="text;html=1;align=center;verticalAlign=middle;resizable=0;points=[];autosize=1;strokeColor=none;fillColor=none;" parent="1" vertex="1">
          <mxGeometry x="660" y="268" width="80" height="30" as="geometry" />
        </mxCell>
        <mxCell id="9ZFCEv5_zAoywzQ1t4b1-17" value="Aquier" style="text;html=1;align=center;verticalAlign=middle;resizable=0;points=[];autosize=1;strokeColor=none;fillColor=none;" parent="1" vertex="1">
          <mxGeometry x="670" y="370" width="60" height="30" as="geometry" />
        </mxCell>
        <mxCell id="9ZFCEv5_zAoywzQ1t4b1-22" style="edgeStyle=orthogonalEdgeStyle;rounded=0;orthogonalLoop=1;jettySize=auto;html=1;entryX=0.5;entryY=1;entryDx=0;entryDy=0;" parent="1" source="9ZFCEv5_zAoywzQ1t4b1-20" target="9ZFCEv5_zAoywzQ1t4b1-10" edge="1">
          <mxGeometry relative="1" as="geometry" />
        </mxCell>
        <mxCell id="9ZFCEv5_zAoywzQ1t4b1-20" value="Actor" style="shape=umlActor;verticalLabelPosition=bottom;verticalAlign=top;html=1;outlineConnect=0;" parent="1" vertex="1">
          <mxGeometry x="240" y="580" width="30" height="60" as="geometry" />
        </mxCell>
        <mxCell id="9ZFCEv5_zAoywzQ1t4b1-21" value="This person is having a card from Bank B&lt;br&gt;and want to use it in the ATM of the Bank A" style="text;html=1;align=center;verticalAlign=middle;resizable=0;points=[];autosize=1;strokeColor=none;fillColor=none;" parent="1" vertex="1">
          <mxGeometry x="135" y="663" width="250" height="40" as="geometry" />
        </mxCell>
        <mxCell id="9ZFCEv5_zAoywzQ1t4b1-23" value="&lt;font style=&quot;font-size: 26px;&quot;&gt;ATM/POS&lt;/font&gt;" style="text;html=1;align=center;verticalAlign=middle;resizable=0;points=[];autosize=1;strokeColor=#b85450;fillColor=#f8cecc;strokeWidth=7;" parent="1" vertex="1">
          <mxGeometry x="340" y="140" width="140" height="40" as="geometry" />
        </mxCell>
        <mxCell id="wYd24zpioTUmAyXITeTW-3" value="&lt;h1&gt;SDMS&lt;/h1&gt;SDMS will check if there is&lt;br style=&quot;border-color: var(--border-color); text-align: center;&quot;&gt;&lt;span style=&quot;text-align: center;&quot;&gt;a problem between banks&lt;/span&gt;&lt;p&gt;.&lt;/p&gt;" style="text;html=1;strokeColor=#6c8ebf;fillColor=#dae8fc;spacing=5;spacingTop=-20;whiteSpace=wrap;overflow=hidden;rounded=0;" vertex="1" parent="1">
          <mxGeometry x="480" y="409" width="150" height="90" as="geometry" />
        </mxCell>
      </root>
    </mxGraphModel>
  </diagram>
</mxfile>
